<?xml version="1.0" encoding="utf-8"?>
<!-- Generator: Adobe Illustrator 23.0.1, SVG Export Plug-In . SVG Version: 6.00 Build 0)  -->
<svg version="1.1" id="Calque_1" xmlns="http://www.w3.org/2000/svg" xmlns:xlink="http://www.w3.org/1999/xlink" x="0px" y="0px"
	 viewBox="0 0 1954.95 1543" style="enable-background:new 0 0 1954.95 1543;" xml:space="preserve"  width="1954.95" height="1543" preserveAspectRatio="none">
<style type="text/css">
	.st0{fill:none;}
	.st1{opacity:0.1;}
	.st2{fill:#FFFFFF;}
</style>
<g>
	<polygon class="st0" points="1954.95,1101.38 0,1034.37 0,0 1954.95,67.01 	"/>
	<polygon class="st1" points="1954.95,296.02 0,229.01 0,114.08 1954.95,181.09 	"/>
	<polygon class="st1" points="1954.95,756.34 0,689.34 0,574.41 1954.95,641.41 	"/>
	<polygon class="st1" points="1954.95,986.5 0,919.5 0,804.57 1954.95,871.57 	"/>
	<polygon class="st1" points="1954.95,526.18 0,459.18 0,344.25 1954.95,411.25 	"/>
	<g>
		<polygon class="st2" points="0,1603 1954.95,1603 1954.95,1101.38 0,1034.37 		"/>
		<polygon class="st2" points="0,0 1954.95,67.01 1954.95,-70 0,-70 		"/>
	</g>
</g>
</svg>
